<svg width="512" height="512" viewBox="0 0 512 512" fill="none" xmlns="http://www.w3.org/2000/svg">
<path fill-rule="evenodd" clip-rule="evenodd" d="M157.968 105C168.305 105 178.642 106.004 188.979 108.014C199.316 109.736 207.5 111.888 213.53 114.472C216.401 115.62 218.124 116.912 218.698 118.347C219.56 119.782 219.991 121.361 219.991 123.083V186.374C219.991 187.235 219.272 187.954 217.837 188.528C216.688 188.815 215.827 188.527 215.253 187.666C213.53 184.222 211.089 178.625 207.931 170.875C204.772 162.838 200.609 154.514 195.44 145.903C190.272 137.292 183.667 129.972 175.627 123.945C167.587 117.63 157.824 114.472 146.338 114.472C139.16 114.472 132.556 115.907 126.526 118.778C120.783 121.648 116.045 125.954 112.312 131.695C108.867 137.149 107.143 144.325 107.143 153.223C107.143 164.13 109.871 173.746 115.327 182.07C121.07 190.107 128.392 197.425 137.294 204.027C146.482 210.629 156.102 217.231 166.152 223.833C177.063 230.722 187.4 238.042 197.163 245.792C207.212 253.254 215.396 262.008 221.713 272.055C226.273 278.792 229.257 286.488 230.669 295.141L313.759 112.568C314.046 111.708 315.338 111.277 317.635 111.277C319.932 110.99 321.224 111.421 321.512 112.568L429.19 324.401C436.082 337.892 441.968 348.656 446.85 356.693C452.018 364.443 456.756 370.041 461.063 373.485C465.657 376.642 470.252 378.22 474.846 378.22C476.281 378.22 477 379.082 477 380.804C477 382.526 476.281 383.387 474.846 383.387C466.232 383.387 457.187 383.1 447.711 382.526C438.523 381.952 429.621 381.665 421.006 381.665C411.244 381.665 402.773 381.952 395.594 382.526C388.416 383.1 380.376 383.387 371.474 383.387C370.326 383.387 369.751 382.526 369.751 380.804C369.751 379.082 370.326 378.22 371.474 378.22C383.247 378.22 389.995 375.924 391.718 371.332C393.727 366.452 391.143 356.98 383.965 342.915L354.529 284.79H248.909L231.923 322.249C224.17 339.471 224.026 353.106 231.492 363.152C238.958 373.198 250.731 378.22 266.811 378.22C268.246 378.22 268.964 379.082 268.964 380.804C268.964 382.526 268.246 383.387 266.811 383.387C258.196 383.387 250.299 383.1 243.121 382.526C235.942 381.952 226.897 381.665 215.986 381.665C204.787 381.665 195.742 381.952 188.85 382.526C182.245 383.1 154.299 384 144.536 384C144.312 384 144.11 383.966 143.929 383.9C142.169 383.965 140.387 383.999 138.585 383.999C129.971 383.999 120.926 383.138 111.451 381.416C102.262 379.694 93.7911 377.541 86.0383 374.958C78.5727 372.374 73.1173 369.647 69.6716 366.777C68.523 365.916 67.5171 365.055 66.6556 364.194C65.7942 363.046 65.3642 361.179 65.3642 358.596L64.0717 290.138C63.7847 288.703 64.3595 287.986 65.7951 287.986C67.5177 287.699 68.5228 288.13 68.8099 289.278C73.117 298.176 77.8549 307.648 83.0234 317.694C88.1919 327.453 93.9348 336.495 100.252 344.819C106.856 353.142 114.178 360.031 122.218 365.485C130.258 370.651 139.447 373.235 149.784 373.235C156.388 373.235 162.706 372.087 168.736 369.791C174.765 367.494 179.647 363.333 183.38 357.305C187.4 351.277 189.41 342.953 189.41 332.333C189.41 318.842 186.395 307.36 180.365 297.888C174.335 288.129 166.582 279.661 157.106 272.485C147.63 265.022 137.724 257.99 127.387 251.388C117.338 244.786 107.718 238.041 98.5295 231.153C89.3411 223.977 81.8749 215.94 76.1321 207.042C70.3893 197.857 67.5174 186.949 67.5173 174.32C67.5173 158.246 71.968 145.185 80.8692 135.139C90.0578 124.806 101.544 117.199 115.327 112.319C129.397 107.44 143.611 105 157.968 105ZM254.376 272.735H348.424L298.806 174.757L254.376 272.735Z" fill="#020617"/>
</svg>
